<?xml version="1.0" encoding="utf-8"?>
<!-- Generator: Adobe Illustrator 22.0.1, SVG Export Plug-In . SVG Version: 6.00 Build 0)  -->
<svg version="1.1" id="Layer_1" xmlns="http://www.w3.org/2000/svg" xmlns:xlink="http://www.w3.org/1999/xlink" x="0px" y="0px"
	 viewBox="0 0 457.9 113.7" style="enable-background:new 0 0 457.9 113.7;" xml:space="preserve">
<style type="text/css">
	.st0{fill:#CC1C2D;}
</style>
<g>
	<path class="st0" d="M180.6,65.8c0.5,0,0.8,0.4,0.8,0.8c0,0-1.2,6.4-7.5,6.4H157c-0.5,0-0.8-0.4-0.8-0.8V37.8
		c0-0.5,0.4-0.8,0.8-0.8h22.7c0.5,0,0.8,0.4,0.8,0.8v5.5c0,0.5-0.4,0.8-0.8,0.8h-15.8v6.8h12.7c0.5,0,0.8,0.4,0.8,0.8v5.5
		c0,0.5-0.4,0.8-0.8,0.8h-12.7v7.7h16.7V65.8z"/>
	<path class="st0" d="M68.3,65.8c0.5,0,0.8,0.4,0.8,0.8c0,0-1.2,6.4-7.5,6.4h-17c-0.5,0-0.8-0.4-0.8-0.8V37.8c0-0.5,0.4-0.8,0.8-0.8
		h22.7c0.4,0,0.8,0.4,0.8,0.8v5.5c0,0.5-0.4,0.8-0.8,0.8H51.6v6.8h12.7c0.5,0,0.8,0.4,0.8,0.8v5.5c0,0.5-0.4,0.8-0.8,0.8H51.6v7.7
		h16.7V65.8z"/>
	<path class="st0" d="M38.1,37c0.5,0,0.8,0.4,0.8,0.8c0,0-1.6,6.3-8.4,6.3h-2.2v28c0,0.5-0.4,0.8-0.8,0.8h-6.1
		c-0.5,0-0.8-0.4-0.8-0.8v-28h-9.7c-0.5,0-0.8-0.4-0.8-0.8c0,0,1.6-6.3,8.3-6.3H38.1z"/>
	<path class="st0" d="M402.5,36c0.5,0,0.8,0.4,0.8,0.8c0,0-1.6,6.3-8.4,6.3h-2.2v28c0,0.5-0.4,0.8-0.8,0.8h-6.1
		c-0.5,0-0.8-0.4-0.8-0.8v-28h-9.7c-0.5,0-0.8-0.4-0.8-0.8c0,0,1.6-6.3,8.3-6.3H402.5z"/>
	<path class="st0" d="M130.6,73h-12.8c-0.5,0-0.8-0.4-0.8-0.8V37.8c0-0.5,0.4-0.8,0.8-0.8h13.5c9.1,0,18.3,5.6,18.3,18
		C149.6,66.6,139.8,73,130.6,73z M124.7,65.8h3.7c4.9,0,13.1-1.4,13.1-10.8c0-8.9-6.6-10.8-12.1-10.8h-4.8L124.7,65.8L124.7,65.8z"
		/>
	<path class="st0" d="M214.9,73c0,0-1.7,0-3.5,0c-4.6,0-6.3-3.6-6.3-3.6l-6-11H196v13.7c0,0.5-0.4,0.8-0.8,0.8H189
		c-0.5,0-0.8-0.4-0.8-0.8V37.8c0-0.5,0.4-0.8,0.8-0.8h12c8.9,0,13.6,3.7,13.6,10.7c0,5.1-2.8,8.8-7.5,9.9l8.5,14.2
		c0.2,0.3,0.2,0.6,0,0.8C215.5,72.8,215.2,73,214.9,73z M196,51.5h3.9c4.2,0,6.6-0.6,6.6-3.9c0-2.6-1.8-3.7-6.1-3.7H196V51.5z"/>
	<path class="st0" d="M324.3,72.9c-11.2,0-19-7.7-19-18.7c0-11.2,7.8-19,19-19c5.2,0,9.3,1.9,12.6,5.7c0.2,0.2,0.2,0.4,0.2,0.6
		s-0.1,0.4-0.3,0.6c0,0-4.4,3.8-8,1.5c-1.4-0.8-2.8-1.3-4.4-1.3c-6.3,0-11,4.8-11,11.4c0,7,4.5,11.9,11,11.9c1.7,0,3.3-0.6,4.8-1.6
		c3.3-2.2,7.2,0.3,7.2,0.3l1.3,0.9c0.2,0.1,0.3,0.3,0.3,0.5s0,0.4-0.1,0.6C334.7,70.6,330.1,72.9,324.3,72.9z"/>
	<path class="st0" d="M416.6,72.9c-3.5,0-8.4-0.9-11.9-4.9c-0.3-0.3-0.3-0.8,0.1-1.1l4.6-4.5c0.2-0.2,0.4-0.2,0.7-0.2
		c0.2,0,0.5,0.2,0.6,0.4c1.3,2,3.6,3.2,6.1,3.2s5.2-1.4,5.2-3.9c0-2.6-2.3-3.4-6.1-4.7c-4.5-1.5-10.2-3.3-10.2-10.8
		c0-7.7,7-11.2,13.5-11.2c2.9,0,7.1,0.7,10.4,3.8c0.1,0.2,0.2,0.4,0.3,0.6c0,0.2-0.1,0.4-0.2,0.6c0,0-3,4.5-8.2,2.8
		c-0.9-0.3-1.9-0.5-2.9-0.5c-0.8,0-4.8,0.2-4.8,3.6c0,2.2,2.2,3.1,5.8,4.2c4.7,1.5,10.5,3.4,10.5,10.9
		C430,68.3,424.8,72.9,416.6,72.9z"/>
	<path class="st0" d="M100.7,37.8c0-0.5,0.4-0.8,0.8-0.8h1.8c0,0,5.1-0.4,5.1,7.2v28c0,0.5-0.4,0.8-0.8,0.8h-7.8
		c-0.3,0-0.5-0.1-0.7-0.4L83.7,48.5v23.7c0,0.5-0.4,0.8-0.8,0.8h-6.1c-0.5,0-0.8-0.4-0.8-0.8V37.8c0-0.5,0.4-0.8,0.8-0.8h8.1
		c0.3,0,0.5,0.1,0.7,0.4l15.2,23.3L100.7,37.8L100.7,37.8z"/>
	<path class="st0" d="M223.1,44.7c0,0,0-0.2-0.1-0.7c0-0.4-0.1-1.1-0.2-2c-0.1-1.8-0.2-4.5,0.3-7.8s1.6-7.5,4.6-11.4
		c1.5-1.9,3.6-3.6,6.1-4.8c2.6-1.2,5.8-1.4,8.6-0.6c5.8,1.4,10.5,5.6,16.3,6.9c0.7,0.2,1.5,0.2,2.1,0.2h1.2c0.4,0,0.7-0.1,1.1-0.1
		c1.4-0.2,3-0.7,4.5-1.3c3-1.2,6-2.8,9.2-4.1s6.8-2.5,10.8-2.2L289,17l1.5,0.3c1,0.3,1.9,0.6,2.8,1.1c1.8,1,3.3,2.4,4.4,4.1
		c2.2,3.4,2.9,7.4,3,11.2s-0.5,7.6-1.5,11.3s-2.3,7.2-4.2,10.6c-0.9,1.7-1.9,3.3-3.1,4.8c-1.1,1.5-2.3,2.9-3.5,4.3
		c-4.8,5.6-9.8,10.7-15.2,15.3c-2.7,2.3-5.4,4.4-8.4,6.2c-1.5,0.9-3,1.8-4.7,2.4c-1.7,0.7-3.5,1.3-5.7,1.1c-4-0.4-7-2.5-9.5-4.5
		c-2.5-2.1-4.5-4.3-6.2-6.5c-3.5-4.5-6.2-8.9-8.3-13s-3.7-7.8-4.8-10.9s-1.8-5.6-2.1-7.4c-0.2-0.9-0.3-1.6-0.4-2
		C223.2,45,223.1,44.8,223.1,44.7L223.1,44.7z M226.8,44.2c0,0,0,0.2,0.1,0.6s0.2,1,0.4,1.8c0.4,1.6,1.1,3.9,2.2,6.8
		s2.7,6.4,4.8,10.2c2.1,3.8,4.8,8,8.1,12.1c1.7,2,3.5,4.1,5.6,5.8s4.5,3.2,6.8,3.4c0.9,0.1,2.3-0.2,3.6-0.7s2.7-1.2,4-2
		c2.7-1.6,5.3-3.6,7.9-5.7c5.2-4.3,10.3-9.2,15-14.4c1.2-1.3,2.3-2.7,3.5-4c1.1-1.3,2-2.8,2.9-4.3c1.8-3,3.1-6.3,4.1-9.7
		s1.6-6.9,1.6-10.4s-0.6-6.9-2.3-9.7s-4.6-4.3-8-4.6c-3.1-0.3-6.5,0.6-9.6,1.9c-3.1,1.2-6.1,2.8-9.3,4c-1.6,0.6-3.2,1.1-5,1.4
		c-0.4,0.1-0.9,0.1-1.3,0.2h-1.2c-1,0-1.8-0.1-2.6-0.3c-3.3-0.7-6.1-2.3-8.8-3.5c-2.6-1.3-5.2-2.6-7.6-3.1c-2.5-0.6-4.8-0.3-6.8,0.6
		c-2,1-3.7,2.5-4.9,4.1c-2.4,3.3-3.3,7-3.7,10s-0.2,5.5-0.1,7c0.1,0.8,0.2,1.4,0.2,1.9C226.8,44,226.8,44.3,226.8,44.2L226.8,44.2z"
		/>
	<path class="st0" d="M286.3,40.3c-3.1,1.2-5.1,0.3-6.2-1.4c-2.3-3.7-0.8-11.8,4.4-11.9C292.3,26.8,291.9,38.2,286.3,40.3
		L286.3,40.3z"/>
	<path class="st0" d="M259.3,49.9c-0.6-3.6-1.6-7-3.1-10.1c-2.7-5.5-13-17-19.9-11.4c-11,8.9,0.6,32.2,6.8,40.6
		c5,6.7,10.7,9.1,14.4-0.1C259.8,63.2,260.4,56.3,259.3,49.9z"/>
	<path class="st0" d="M275,42c-1.7-3.8-2.2-8.7-5.3-11c-2.8-2.1-7.3-2.3-9.8,0.6c-2,2.5,0.2,7.3,1.2,9.9c4.3,10.5,4.8,20.2-1.5,30.2
		c-1.2,2-6.5,8.1-1.5,8.8c3.6,0.5,11.6-7.5,14.6-10.9c4.1-4.7,7.8-8.7,11.3-14c1.4-2.1,3.5-6.6,1.4-8.6c-1.6-1.5-3.7-0.1-5.5-0.5
		C277.3,45.9,276.1,44.2,275,42L275,42z"/>
	<path class="st0" d="M363.1,44.5v-7.8c0-0.5,0.3-0.8,0.8-0.8c7,0,6.9,8.5,6.9,8.5v0.1l-0.1,14.1c0,8.5-6.1,14.3-14.8,14.3
		s-14.7-6-14.6-14.4l0.1-21.8c0-0.5,0.3-0.8,0.8-0.8c7,0,6.9,8.5,6.9,8.5L349,58.3c0,1.2,0.3,7.1,6.9,7.1s6.9-5.8,6.9-7l0.1-14v0.1
		H363.1z"/>
	<path class="st0" d="M84.6,84.7v2.4v1.8h0.8h4.1c0.1,0.2,0.1,0.5,0.1,0.9s0,0.7-0.1,0.9h-4.9v6c-0.3,0.1-0.7,0.1-1.1,0.1
		s-0.8,0-1.1-0.1V83l0.1-0.1h8c0.1,0.2,0.1,0.5,0.1,0.8c0,0.7-0.4,1-1.2,1h-3C85.6,84.8,84.9,84.8,84.6,84.7L84.6,84.7z"/>
	<path class="st0" d="M99.7,95.8c-0.2,0.5-0.4,0.8-0.8,1.1c-0.8-0.1-1.3-0.6-1.6-1.2c-1,0.9-1.9,1.4-2.9,1.4c-0.5,0-1-0.1-1.3-0.2
		c-0.4-0.2-0.7-0.4-1-0.7s-0.5-0.6-0.6-0.9c-0.1-0.4-0.2-0.7-0.2-1.1c0-1.1,0.4-1.9,1.1-2.5s1.6-0.8,2.8-0.8h1c0.3,0,0.6,0.1,1,0.1
		v-1c0-1.2-0.6-1.8-1.6-1.8c-0.8,0-1.8,0.3-3.2,0.8c-0.4-0.3-0.6-0.8-0.6-1.5c1.4-0.6,2.8-0.9,4.2-0.9c1.1,0,1.9,0.3,2.4,0.8
		c0.6,0.6,0.9,1.4,0.9,2.5V94C99.2,94.9,99.4,95.4,99.7,95.8z M94.7,95.3c0.9,0,1.6-0.4,2.4-1.2v-1.9c-0.3,0-0.6,0-0.8-0.1
		c-0.3,0-0.6,0-0.9,0c-0.6,0-1.1,0.2-1.4,0.5s-0.5,0.7-0.5,1.2s0.1,0.9,0.4,1.1C94,95.2,94.3,95.3,94.7,95.3z"/>
	<path class="st0" d="M101.7,87.7c0.1-0.5,0.4-0.9,0.8-1.1c0.9,0.2,1.5,0.8,1.8,1.8c0.5-1.2,1.4-1.8,2.6-1.8c0.3,0,0.7,0,1.1,0.1
		c0,0.8-0.2,1.4-0.5,2c-0.1,0-0.4-0.1-0.8-0.1c-0.9,0-1.6,0.5-2.2,1.5v6.6c-0.3,0.1-0.6,0.1-1,0.1s-0.8,0-1-0.1v-6.9
		C102.4,88.9,102.2,88.2,101.7,87.7z"/>
	<path class="st0" d="M115.1,90.4c0-0.7-0.1-1.2-0.3-1.5s-0.5-0.5-0.9-0.5c-0.7,0-1.5,0.4-2.2,1.2v7c-0.2,0.1-0.6,0.1-1,0.1
		c-0.2,0-0.4,0-0.6,0s-0.3,0-0.5-0.1v-9.9l0.1-0.1h0.8c0.7,0,1.1,0.4,1.1,1.3c1-0.9,1.9-1.4,3-1.4c1,0,1.8,0.5,2.2,1.5
		c1.1-1,2.2-1.5,3.2-1.5c0.8,0,1.5,0.3,1.9,0.9s0.7,1.4,0.7,2.3v4.8c0,0.8,0.1,1.4,0.3,1.8c-0.4,0.3-0.8,0.4-1.3,0.4
		c-0.7,0-1.1-0.4-1.1-1.3v-5.1c0-0.7-0.1-1.2-0.3-1.5s-0.5-0.4-0.9-0.4c-0.7,0-1.5,0.4-2.2,1.2v7c-0.1,0-0.3,0-0.5,0.1
		c-0.2,0-0.4,0-0.6,0s-0.4,0-0.6,0s-0.3,0-0.5-0.1v-6.2L115.1,90.4z"/>
	<path class="st0" d="M130.6,96.7v-8.5h-1.7c0-0.1,0-0.2-0.1-0.4c0-0.1,0-0.3,0-0.4c0-0.3,0-0.6,0.1-0.8h1.6
		c-0.1-0.8-0.1-1.4-0.1-1.8c0-0.5,0.1-0.9,0.2-1.3s0.3-0.7,0.6-1s0.6-0.5,1-0.7s0.8-0.2,1.3-0.2c0.9,0,1.8,0.2,2.6,0.5
		c0,0.6-0.2,1.1-0.5,1.4c-0.3-0.1-0.6-0.2-0.9-0.2c-0.3-0.1-0.5-0.1-0.8-0.1c-0.6,0-1,0.2-1.2,0.5s-0.4,0.8-0.4,1.4v0.7
		c0,0.3,0.1,0.5,0.1,0.8h2.8c0,0.1,0,0.2,0.1,0.4v0.4v0.4c0,0.1,0,0.3-0.1,0.4h-2.7v8.5c-0.2,0-0.3,0-0.5,0.1c-0.2,0-0.4,0-0.5,0
		c-0.2,0-0.4,0-0.5,0C130.9,96.7,130.7,96.7,130.6,96.7L130.6,96.7z"/>
	<path class="st0" d="M136.6,87.7c0.1-0.5,0.4-0.9,0.8-1.1c0.9,0.2,1.5,0.8,1.8,1.8c0.5-1.2,1.4-1.8,2.6-1.8c0.3,0,0.7,0,1.1,0.1
		c0,0.8-0.2,1.4-0.5,2c-0.1,0-0.4-0.1-0.8-0.1c-0.9,0-1.6,0.5-2.2,1.5v6.6c-0.3,0.1-0.6,0.1-1,0.1s-0.8,0-1-0.1v-6.9
		C137.4,88.9,137.1,88.2,136.6,87.7L136.6,87.7z"/>
	<path class="st0" d="M151.6,92.4h-5.9c0,0.9,0.2,1.6,0.6,2.1s1,0.7,1.8,0.7c0.4,0,0.8-0.1,1.3-0.2s0.9-0.3,1.4-0.6
		c0.3,0.3,0.6,0.8,0.7,1.3c-1.1,0.8-2.3,1.1-3.8,1.1c-0.8,0-1.4-0.1-1.9-0.4s-1-0.6-1.3-1.1s-0.6-1-0.7-1.7
		c-0.2-0.7-0.2-1.4-0.2-2.1s0.1-1.4,0.3-2.1c0.2-0.6,0.5-1.2,0.8-1.6c0.4-0.5,0.8-0.8,1.3-1.1s1.1-0.4,1.7-0.4s1.2,0.1,1.7,0.3
		s0.9,0.5,1.3,0.9c0.3,0.4,0.6,0.8,0.8,1.4c0.2,0.5,0.3,1.1,0.3,1.7v0.8C151.7,91.8,151.7,92.1,151.6,92.4L151.6,92.4z M147.7,88
		c-1.3,0-2,0.9-2.1,2.8h4.1v-0.3c0-0.8-0.2-1.4-0.5-1.9C148.9,88.3,148.4,88,147.7,88z"/>
	<path class="st0" d="M153.4,95.9c0-0.2,0.1-0.5,0.2-0.8s0.3-0.5,0.5-0.7c1.1,0.6,1.9,0.9,2.6,0.9s1.2-0.1,1.5-0.3s0.5-0.5,0.5-0.9
		c0-0.6-0.4-1-1.3-1.4l-1.1-0.4c-1.7-0.6-2.5-1.6-2.5-2.9c0-0.9,0.3-1.7,1-2.2s1.5-0.8,2.6-0.8s2.2,0.2,3.2,0.7
		c0,0.3-0.1,0.6-0.2,0.8c-0.1,0.3-0.3,0.5-0.5,0.7c-0.9-0.4-1.8-0.7-2.7-0.7c-0.5,0-0.8,0.1-1.1,0.3s-0.4,0.5-0.4,0.8
		s0.1,0.6,0.3,0.7c0.2,0.2,0.5,0.3,1,0.5l1.2,0.5c1.7,0.7,2.6,1.7,2.6,3c0,0.9-0.4,1.7-1.1,2.2s-1.7,0.8-2.9,0.8
		C155.6,96.9,154.5,96.6,153.4,95.9L153.4,95.9z"/>
	<path class="st0" d="M171,89.9v4.7c0,0.8,0.1,1.4,0.3,1.8c-0.4,0.3-0.8,0.4-1.2,0.4s-0.7-0.1-0.9-0.3s-0.2-0.6-0.2-1v-5.1
		c0-0.7-0.1-1.2-0.3-1.5s-0.5-0.4-0.9-0.4s-0.9,0.1-1.4,0.3s-0.9,0.5-1.2,0.9v7c-0.1,0-0.3,0-0.5,0.1c-0.2,0-0.4,0-0.5,0
		c-0.2,0-0.4,0-0.6,0s-0.3,0-0.5-0.1V82l0.1-0.1h0.8c0.4,0,0.7,0.1,0.9,0.3s0.2,0.5,0.2,1v4.7c1-0.9,2-1.3,3.2-1.3
		c0.9,0,1.6,0.3,2,0.9C170.8,88.1,171,88.9,171,89.9L171,89.9z"/>
	<path class="st0" d="M184,90.4c0-0.7-0.1-1.2-0.3-1.5s-0.5-0.5-0.9-0.5c-0.7,0-1.5,0.4-2.2,1.2v7c-0.2,0.1-0.6,0.1-1,0.1
		c-0.2,0-0.4,0-0.6,0s-0.3,0-0.5-0.1v-9.9l0.1-0.1h0.8c0.7,0,1.1,0.4,1.1,1.3c1-0.9,1.9-1.4,3-1.4c1,0,1.8,0.5,2.2,1.5
		c1.1-1,2.2-1.5,3.2-1.5c0.9,0,1.5,0.3,1.9,0.9s0.7,1.4,0.7,2.3v4.8c0,0.8,0.1,1.4,0.3,1.8c-0.4,0.3-0.8,0.4-1.3,0.4
		c-0.7,0-1.1-0.4-1.1-1.3v-5.1c0-0.7-0.1-1.2-0.3-1.5s-0.5-0.4-0.9-0.4c-0.7,0-1.5,0.4-2.2,1.2v7c-0.1,0-0.3,0-0.5,0.1
		c-0.2,0-0.4,0-0.6,0s-0.4,0-0.6,0s-0.3,0-0.5-0.1v-6.2L184,90.4z"/>
	<path class="st0" d="M201.9,92.4H196c0,0.9,0.2,1.6,0.6,2.1s1,0.7,1.8,0.7c0.4,0,0.8-0.1,1.3-0.2s0.9-0.3,1.4-0.6
		c0.3,0.3,0.6,0.8,0.7,1.3c-1.1,0.8-2.3,1.1-3.8,1.1c-0.8,0-1.4-0.1-1.9-0.4s-0.9-0.6-1.3-1.1c-0.3-0.5-0.6-1-0.7-1.7
		s-0.2-1.4-0.2-2.1s0.1-1.4,0.3-2.1c0.2-0.6,0.5-1.2,0.8-1.6c0.3-0.5,0.8-0.8,1.3-1.1s1.1-0.4,1.7-0.4s1.2,0.1,1.7,0.3
		s0.9,0.5,1.3,0.9c0.3,0.4,0.6,0.8,0.8,1.4c0.2,0.5,0.3,1.1,0.3,1.7v0.8C202,91.8,202,92.1,201.9,92.4L201.9,92.4z M198.1,88
		c-1.3,0-2,0.9-2.1,2.8h4.1v-0.3c0-0.8-0.2-1.4-0.5-1.9C199.3,88.3,198.8,88,198.1,88z"/>
	<path class="st0" d="M212.4,95.8c-0.2,0.5-0.4,0.8-0.8,1.1c-0.8-0.1-1.3-0.6-1.6-1.2c-1,0.9-1.9,1.4-2.9,1.4c-0.5,0-1-0.1-1.3-0.2
		c-0.4-0.2-0.7-0.4-1-0.7s-0.5-0.6-0.6-0.9c-0.1-0.4-0.2-0.7-0.2-1.1c0-1.1,0.4-1.9,1.1-2.5s1.6-0.8,2.8-0.8h1c0.3,0,0.6,0.1,1,0.1
		v-1c0-1.2-0.6-1.8-1.7-1.8c-0.8,0-1.8,0.3-3.2,0.8c-0.4-0.3-0.6-0.8-0.6-1.5c1.4-0.6,2.8-0.9,4.2-0.9c1,0,1.9,0.3,2.4,0.8
		c0.6,0.6,0.9,1.4,0.9,2.5V94C211.8,94.9,212,95.4,212.4,95.8L212.4,95.8z M207.4,95.3c0.9,0,1.6-0.4,2.4-1.2v-1.9
		c-0.3,0-0.6,0-0.9-0.1c-0.3,0-0.6,0-0.9,0c-0.6,0-1.1,0.2-1.4,0.5s-0.5,0.7-0.5,1.2s0.1,0.9,0.4,1.1
		C206.6,95.2,207,95.3,207.4,95.3z"/>
	<path class="st0" d="M219.5,86.7c0.1,0.2,0.1,0.5,0.1,0.8s0,0.6-0.1,0.8H217v6c0,0.6,0.3,0.9,0.8,0.9h1.4c0.1,0.3,0.2,0.6,0.2,0.9
		v0.6c-0.8,0.1-1.5,0.1-2.3,0.1c-1.4,0-2.1-0.7-2.1-2.1v-6.4h-1.5c-0.1-0.2-0.1-0.5-0.1-0.8s0-0.5,0.1-0.8h1.5V85
		c0-0.5,0.1-0.8,0.2-1c0.2-0.2,0.5-0.3,0.9-0.3h0.8l0.1,0.1v3L219.5,86.7z"/>
	<path class="st0" d="M220.7,95.9c0-0.2,0.1-0.5,0.2-0.8s0.3-0.5,0.5-0.7c1.1,0.6,1.9,0.9,2.6,0.9s1.2-0.1,1.5-0.3s0.5-0.5,0.5-0.9
		c0-0.6-0.4-1-1.3-1.4l-1.1-0.4c-1.7-0.6-2.5-1.6-2.5-2.9c0-0.9,0.3-1.7,1-2.2s1.5-0.8,2.6-0.8s2.2,0.2,3.2,0.7
		c0,0.3-0.1,0.6-0.2,0.8c-0.1,0.3-0.3,0.5-0.5,0.7c-1-0.4-1.8-0.7-2.7-0.7c-0.4,0-0.8,0.1-1.1,0.3S223,88.7,223,89s0.1,0.6,0.3,0.7
		c0.2,0.2,0.5,0.3,1,0.5l1.2,0.5c1.7,0.7,2.6,1.7,2.6,3c0,0.9-0.3,1.7-1.1,2.2c-0.7,0.5-1.7,0.8-2.9,0.8
		C223,96.9,221.9,96.6,220.7,95.9L220.7,95.9z"/>
	<path class="st0" d="M291.5,90.3v3.3v0.9c0,0.5,0.1,1.2,0.1,2.1c-0.3,0.1-0.6,0.1-1,0.1c-0.2,0-0.3,0-0.5,0s-0.3,0-0.4-0.1
		l-0.2-0.8c-1,0.7-2.1,1.1-3.3,1.1c-0.6,0-1.1-0.1-1.6-0.3s-0.9-0.5-1.2-0.8s-0.6-0.7-0.8-1.2c-0.2-0.4-0.3-0.9-0.3-1.4
		s0.1-1,0.2-1.4s0.3-0.8,0.6-1.2c0.2-0.3,0.5-0.6,0.8-0.8s0.7-0.4,1-0.5c-0.6-0.2-1.1-0.6-1.5-1.1c-0.4-0.6-0.6-1.2-0.6-1.9
		c0-0.5,0.1-1,0.3-1.4s0.5-0.8,0.9-1.1s0.8-0.6,1.3-0.7c0.5-0.2,1.1-0.3,1.8-0.3c1.3,0,2.5,0.2,3.7,0.6c0,0.7-0.2,1.2-0.6,1.7
		c-1.1-0.3-2.1-0.5-2.8-0.5c-0.8,0-1.4,0.2-1.7,0.5c-0.4,0.4-0.6,0.9-0.6,1.5s0.2,1.2,0.6,1.5c0.4,0.4,1,0.5,1.9,0.5h3.7
		c0.8,0,1.4-0.1,1.9-0.3c0.2,0.2,0.3,0.6,0.3,1c0,0.7-0.5,1.1-1.5,1.1L291.5,90.3L291.5,90.3z M289.5,91.6c0-0.3,0-0.5,0-0.7
		s0-0.4,0-0.5h-1.9c-0.5,0-0.9,0.1-1.3,0.2s-0.7,0.3-0.9,0.6c-0.2,0.2-0.4,0.5-0.5,0.8s-0.2,0.7-0.2,1c0,0.7,0.2,1.3,0.6,1.7
		s0.9,0.6,1.6,0.6c1,0,1.9-0.3,2.7-0.9v-2.8L289.5,91.6z"/>
	<path class="st0" d="M300.5,96.7v-8.5h-1.7c0-0.1,0-0.2-0.1-0.4c0-0.1,0-0.3,0-0.4c0-0.3,0-0.6,0.1-0.8h1.6
		c-0.1-0.8-0.1-1.4-0.1-1.8c0-0.5,0.1-0.9,0.2-1.3s0.3-0.7,0.6-1s0.6-0.5,1-0.7s0.8-0.2,1.3-0.2c0.9,0,1.8,0.2,2.6,0.5
		c0,0.6-0.2,1.1-0.5,1.4c-0.3-0.1-0.6-0.2-0.9-0.2c-0.3-0.1-0.5-0.1-0.8-0.1c-0.6,0-1,0.2-1.2,0.5s-0.4,0.8-0.4,1.4v0.7
		c0,0.3,0.1,0.5,0.1,0.8h2.8c0,0.1,0,0.2,0.1,0.4v0.4v0.4c0,0.1,0,0.3-0.1,0.4h-2.7v8.5c-0.1,0-0.3,0-0.5,0.1c-0.2,0-0.4,0-0.5,0
		c-0.2,0-0.4,0-0.5,0C300.8,96.7,300.6,96.7,300.5,96.7z"/>
	<path class="st0" d="M306.5,87.7c0.1-0.5,0.4-0.9,0.8-1.1c0.9,0.2,1.5,0.8,1.8,1.8c0.5-1.2,1.4-1.8,2.6-1.8c0.3,0,0.7,0,1.1,0.1
		c0,0.8-0.2,1.4-0.5,2c-0.1,0-0.4-0.1-0.8-0.1c-0.9,0-1.6,0.5-2.2,1.5v6.6c-0.3,0.1-0.6,0.1-1,0.1s-0.8,0-1-0.1v-6.9
		C307.3,88.9,307,88.2,306.5,87.7z"/>
	<path class="st0" d="M321.5,92.4h-5.9c0,0.9,0.2,1.6,0.6,2.1s1,0.7,1.8,0.7c0.4,0,0.8-0.1,1.3-0.2s0.9-0.3,1.4-0.6
		c0.3,0.3,0.6,0.8,0.7,1.3c-1.1,0.8-2.3,1.1-3.8,1.1c-0.8,0-1.4-0.1-1.9-0.4s-0.9-0.6-1.3-1.1c-0.3-0.5-0.6-1-0.7-1.7
		s-0.2-1.4-0.2-2.1s0.1-1.4,0.3-2.1c0.2-0.6,0.5-1.2,0.8-1.6c0.3-0.5,0.8-0.8,1.3-1.1s1.1-0.4,1.7-0.4s1.2,0.1,1.7,0.3
		s0.9,0.5,1.3,0.9s0.6,0.8,0.8,1.4c0.2,0.5,0.3,1.1,0.3,1.7v0.8C321.6,91.8,321.6,92.1,321.5,92.4L321.5,92.4z M317.6,88
		c-1.3,0-2,0.9-2,2.8h4.1v-0.3c0-0.8-0.2-1.4-0.5-1.9C318.8,88.3,318.3,88,317.6,88z"/>
	<path class="st0" d="M323.3,95.9c0-0.2,0.1-0.5,0.2-0.8s0.3-0.5,0.5-0.7c1.1,0.6,1.9,0.9,2.6,0.9s1.2-0.1,1.5-0.3s0.5-0.5,0.5-0.9
		c0-0.6-0.4-1-1.3-1.4l-1.1-0.4c-1.7-0.6-2.5-1.6-2.5-2.9c0-0.9,0.3-1.7,1-2.2s1.5-0.8,2.6-0.8s2.2,0.2,3.2,0.7
		c0,0.3-0.1,0.6-0.2,0.8c-0.1,0.3-0.3,0.5-0.5,0.7c-1-0.4-1.8-0.7-2.7-0.7c-0.4,0-0.8,0.1-1.1,0.3s-0.4,0.5-0.4,0.8s0.1,0.6,0.3,0.7
		c0.2,0.2,0.5,0.3,1,0.5l1.2,0.5c1.7,0.7,2.6,1.7,2.6,3c0,0.9-0.4,1.7-1.1,2.2s-1.7,0.8-2.9,0.8C325.5,96.9,324.4,96.6,323.3,95.9
		L323.3,95.9z"/>
	<path class="st0" d="M340.9,89.9v4.7c0,0.8,0.1,1.4,0.3,1.8c-0.4,0.3-0.8,0.4-1.2,0.4s-0.7-0.1-0.9-0.3s-0.3-0.6-0.3-1v-5.1
		c0-0.7-0.1-1.2-0.3-1.5s-0.5-0.4-0.9-0.4s-0.9,0.1-1.4,0.3s-0.9,0.5-1.2,0.9v7c-0.1,0-0.3,0-0.5,0.1c-0.2,0-0.4,0-0.5,0
		c-0.2,0-0.4,0-0.6,0s-0.3,0-0.5-0.1V82l0.1-0.1h0.8c0.4,0,0.7,0.1,0.9,0.3s0.2,0.5,0.2,1v4.7c1-0.9,2-1.3,3.2-1.3
		c0.9,0,1.6,0.3,2,0.9C340.7,88.1,340.9,88.9,340.9,89.9z"/>
	<path class="st0" d="M348.9,96.7v-8.5h-1.7c0-0.1,0-0.2-0.1-0.4c0-0.1,0-0.3,0-0.4c0-0.3,0-0.6,0.1-0.8h1.6
		c-0.1-0.8-0.1-1.4-0.1-1.8c0-0.5,0.1-0.9,0.2-1.3s0.3-0.7,0.6-1s0.6-0.5,1-0.7s0.8-0.2,1.3-0.2c0.9,0,1.8,0.2,2.6,0.5
		c0,0.6-0.2,1.1-0.5,1.4c-0.3-0.1-0.6-0.2-0.9-0.2c-0.3-0.1-0.5-0.1-0.8-0.1c-0.6,0-1,0.2-1.2,0.5s-0.4,0.8-0.4,1.4v0.7
		c0,0.3,0.1,0.5,0.1,0.8h2.8c0,0.1,0,0.2,0.1,0.4v0.4v0.4c0,0.1,0,0.3-0.1,0.4h-2.7v8.5c-0.2,0-0.3,0-0.5,0.1c-0.2,0-0.4,0-0.5,0
		c-0.2,0-0.4,0-0.5,0C349.2,96.7,349,96.7,348.9,96.7z"/>
	<path class="st0" d="M358.4,88.5v8.2c-0.2,0.1-0.6,0.1-1,0.1s-0.8,0-1-0.1v-7.4c0-0.4-0.1-0.6-0.2-0.8s-0.4-0.2-0.7-0.2h-0.2
		c-0.1-0.3-0.1-0.5-0.1-0.7s0-0.5,0.1-0.8c0.4-0.1,0.9-0.1,1.3-0.1h0.3c0.5,0,0.9,0.2,1.2,0.5C358.2,87.5,358.4,87.9,358.4,88.5
		L358.4,88.5z M355.9,84.9c-0.1-0.2-0.2-0.5-0.2-0.9c0-0.5,0.1-0.9,0.3-1s0.5-0.2,1-0.2s0.9,0.1,1,0.2c0.2,0.1,0.2,0.4,0.2,0.9
		s-0.1,0.8-0.2,0.9s-0.5,0.2-1,0.2C356.5,85.1,356.1,85,355.9,84.9L355.9,84.9z"/>
	<path class="st0" d="M360.6,95.9c0-0.2,0.1-0.5,0.2-0.8s0.3-0.5,0.5-0.7c1.1,0.6,1.9,0.9,2.6,0.9s1.2-0.1,1.5-0.3s0.5-0.5,0.5-0.9
		c0-0.6-0.4-1-1.3-1.4l-1.1-0.4c-1.7-0.6-2.5-1.6-2.5-2.9c0-0.9,0.3-1.7,1-2.2s1.5-0.8,2.6-0.8s2.2,0.2,3.3,0.7
		c0,0.3-0.1,0.6-0.2,0.8c-0.1,0.3-0.3,0.5-0.5,0.7c-1-0.4-1.8-0.7-2.7-0.7c-0.4,0-0.8,0.1-1.1,0.3S363,88.7,363,89s0.1,0.6,0.3,0.7
		c0.2,0.2,0.5,0.3,1,0.5l1.2,0.5c1.7,0.7,2.6,1.7,2.6,3c0,0.9-0.4,1.7-1.1,2.2s-1.7,0.8-2.9,0.8C362.8,96.9,361.7,96.6,360.6,95.9z"
		/>
	<path class="st0" d="M378.2,89.9v4.7c0,0.8,0.1,1.4,0.3,1.8c-0.4,0.3-0.8,0.4-1.2,0.4s-0.7-0.1-0.9-0.3s-0.2-0.6-0.2-1v-5.1
		c0-0.7-0.1-1.2-0.3-1.5s-0.5-0.4-0.9-0.4s-0.9,0.1-1.4,0.3s-0.9,0.5-1.2,0.9v7c-0.1,0-0.3,0-0.5,0.1c-0.2,0-0.4,0-0.5,0
		c-0.2,0-0.4,0-0.6,0s-0.3,0-0.5-0.1V82l0.1-0.1h0.8c0.4,0,0.7,0.1,0.9,0.3s0.2,0.5,0.2,1v4.7c1-0.9,2-1.3,3.2-1.3
		c0.9,0,1.6,0.3,2,0.9C378,88.1,378.2,88.9,378.2,89.9z"/>
	<path class="st0" d="M444.2,38.7c0,0.2,0,0.5-0.1,0.7s-0.2,0.4-0.3,0.6s-0.3,0.3-0.4,0.5c-0.2,0.1-0.4,0.2-0.6,0.3
		c0.2,0.1,0.4,0.2,0.5,0.3c0.1,0.2,0.2,0.4,0.3,0.6l0.4,1.1c0.1,0.2,0.1,0.3,0.2,0.5c0.1,0.1,0.2,0.2,0.3,0.3
		c-0.1,0.1-0.2,0.2-0.4,0.3s-0.4,0.1-0.6,0.1s-0.4-0.1-0.5-0.2s-0.3-0.4-0.4-0.7l-0.5-1.3c-0.1-0.3-0.2-0.5-0.4-0.6
		c-0.1-0.1-0.4-0.2-0.7-0.2h-0.7v3c-0.1,0-0.2,0-0.3,0s-0.3,0-0.4,0c-0.3,0-0.5,0-0.7-0.1v-7.6l0.1-0.1h1.5h1c0.8,0,1.4,0.2,1.9,0.6
		C443.9,37.3,444.2,37.9,444.2,38.7L444.2,38.7z M440.4,37.4v2.5h1c0.8,0,1.2-0.4,1.2-1.2s-0.4-1.2-1.2-1.2c-0.2,0-0.4,0-0.6,0
		C440.7,37.5,440.5,37.5,440.4,37.4z"/>
	<path class="st0" d="M448.5,40.2c0,3.9-3.2,7.1-7.1,7.1s-7.1-3.2-7.1-7.1s3.2-7.1,7.1-7.1S448.5,36.3,448.5,40.2z M447.6,40.2
		c0-3.4-2.8-6.2-6.2-6.2s-6.2,2.8-6.2,6.2s2.8,6.2,6.2,6.2S447.6,43.6,447.6,40.2z"/>
</g>
</svg>
